<svg id="Capa_1" enable-background="new 0 0 512 512" height="512" viewBox="0 0 512 512" width="512" xmlns="http://www.w3.org/2000/svg"><g id="XMLID_677_"><path id="XMLID_669_" d="m350 287.167h152v112h-152z" fill="#adeefa"/><path id="XMLID_15_" d="m458 287.167h44v44h-44z" fill="#ffec80"/><path id="XMLID_667_" d="m448 199.167h-98v88h128z" fill="#fff"/><path id="XMLID_2286_" d="m295 143.167h55v208h-340v-208h58z" fill="#adeefa"/><path id="XMLID_405_" d="m295 352.289h55v46.878h-340v-46.878h58z" fill="#e2e9ee"/><g id="XMLID_2265_"><path id="XMLID_2291_" d="m108 64h144c22.091 0 40 17.909 40 40v144c0 22.091-17.909 40-40 40h-144c-22.091 0-40-17.909-40-40v-144c0-22.091 17.909-40 40-40z" fill="#ffec80"/><path id="XMLID_2278_" d="m140.014 142.046v-78.046h80v78.046l-40-28.669z" fill="#fff"/></g><circle id="XMLID_2282_" cx="107.5" cy="404.5" fill="#6d92ac" r="43.5"/><circle id="XMLID_1342_" cx="410.292" cy="404.5" fill="#6d92ac" r="43.5"/><g id="XMLID_509_"><path id="XMLID_535_" d="m502 277.167h-16.844l-27.691-81.227c-1.381-4.051-5.186-6.773-9.465-6.773h-88v-46c0-5.523-4.478-10-10-10h-48v-29.167c0-27.57-22.43-50-50-50h-144c-27.57 0-50 22.43-50 50v29.167h-48c-5.523 0-10 4.477-10 10v256c0 5.523 4.477 10 10 10h44.216c2.374 27.321 25.358 48.833 53.284 48.833s50.91-21.512 53.284-48.833h55.587c5.523 0 10-4.477 10-10s-4.477-10-10-10h-57.621c-3.412-11.385-10.521-21.181-19.928-28h201.178v28h-33.63c-5.522 0-10 4.477-10 10s4.478 10 10 10h50.638c2.374 27.321 25.358 48.833 53.284 48.833s50.91-21.512 53.284-48.833h38.424c5.522 0 10-4.477 10-10v-112c0-5.522-4.478-10-10-10zm-10 44h-24v-24h24zm-51.156-112 23.182 68h-104.026v-68zm-230.83-135.167v48.576l-24.174-17.326c-1.742-1.248-3.784-1.872-5.826-1.872s-4.084.624-5.826 1.872l-24.174 17.326v-48.576zm-132.014 30c0-16.542 13.458-30 30-30h22.014v68.046c0 3.749 2.097 7.183 5.431 8.896 3.334 1.712 7.347 1.416 10.395-.768l34.174-24.494 34.174 24.494c1.731 1.241 3.774 1.872 5.827 1.872 1.561 0 3.127-.365 4.568-1.104 3.334-1.713 5.431-5.147 5.431-8.896v-68.046h21.986c16.542 0 30 13.458 30 30v144c0 16.542-13.458 30-30 30h-144c-16.542 0-30-13.458-30-30zm29.5 334c-18.472 0-33.5-15.028-33.5-33.5s15.028-33.5 33.5-33.5 33.5 15.028 33.5 33.5-15.028 33.5-33.5 33.5zm-51.25-48.833h-36.25v-28h56.178c-9.407 6.819-16.515 16.615-19.928 28zm-36.25-48v-188h38v94.833c0 27.57 22.43 50 50 50h144c27.57 0 50-22.43 50-50v-94.833h38v188zm390.292 96.833c-18.472 0-33.5-15.028-33.5-33.5s15.028-33.5 33.5-33.5 33.5 15.028 33.5 33.5-15.028 33.5-33.5 33.5zm51.25-48.833c-6.609-22.05-27.078-38.167-51.25-38.167-23.095 0-42.815 14.71-50.292 35.252v-89.085h88v34c0 5.523 4.478 10 10 10h34v48z"/><path id="XMLID_1762_" d="m216.371 249.672h31.629c5.523 0 10-4.477 10-10s-4.477-10-10-10h-31.629c-5.523 0-10 4.477-10 10s4.477 10 10 10z"/><path id="XMLID_1763_" d="m261.37 389.17c-2.63 0-5.21 1.06-7.07 2.93-1.86 1.86-2.93 4.44-2.93 7.07s1.07 5.21 2.93 7.07 4.44 2.93 7.07 2.93 5.21-1.07 7.069-2.93c1.86-1.86 2.931-4.44 2.931-7.07s-1.07-5.21-2.931-7.07c-1.859-1.87-4.439-2.93-7.069-2.93z"/></g></g></svg>