<svg id="Capa_1" enable-background="new 0 0 512.008 512.008" height="512" viewBox="0 0 512.008 512.008" width="512" xmlns="http://www.w3.org/2000/svg"><g id="XMLID_1206_"><g id="XMLID_1765_"><g id="XMLID_1724_"><path id="XMLID_1723_" d="m144 37.004h264c22.091 0 40 17.909 40 40v264c0 22.091-17.909 40-40 40h-264c-22.091 0-40-17.909-40-40v-264c0-22.092 17.909-40 40-40z" fill="#ffec80"/><path id="XMLID_1708_" d="m276 96.257-48 34.403v-93.656h96v93.656z" fill="#fff"/></g><path id="XMLID_1725_" d="m123.615 455.011h136.642c50.776 0 100.86-11.773 146.319-34.393l78.702-39.162c16.4-8.161 21.801-28.936 11.452-44.051-8.103-11.835-23.419-16.328-36.631-10.746l-108.072 45.657c-6.636 2.804-13.767 4.248-20.972 4.248h-8.084-79.568 85.167c16.129 0 29.203-13.075 29.203-29.203 0-16.129-13.075-29.203-29.203-29.203h-59.751l-34.891-15.456c-13.733-6.084-28.588-9.227-43.609-9.227-23.926 0-47.213 7.719-66.401 22.011l-113.918 85.129z" fill="#efb789"/><path id="XMLID_1453_" d="m10 284.004h113.99v191h-113.99z" fill="#ff7d97"/></g><g id="XMLID_689_"><path id="XMLID_690_" d="m380.429 268.785c5.522 0 10-4.478 10-10s-4.478-10-10-10h-67.239c-5.522 0-10 4.478-10 10s4.478 10 10 10z"/><path id="XMLID_707_" d="m504.982 331.756c-10.379-15.16-29.874-21.286-46.982-15.012v-239.74c0-27.57-22.43-50-50-50h-264c-27.57 0-50 22.43-50 50v53.656c0 5.522 4.478 10 10 10s10-4.478 10-10v-53.656c0-16.542 13.458-30 30-30h74v83.655c0 3.749 2.097 7.183 5.432 8.896 3.336 1.712 7.349 1.416 10.394-.768l42.174-30.228 42.175 30.228c1.73 1.241 3.773 1.872 5.826 1.872 1.561 0 3.128-.365 4.567-1.104 3.335-1.713 5.432-5.146 5.432-8.896v-83.655h74c16.542 0 30 13.458 30 30v248.136l-71.004 29.997c.508-2.514.777-5.114.777-7.775 0-21.616-17.587-39.203-39.203-39.203h-57.635l-32.956-14.599c-15.104-6.691-31.139-10.084-47.659-10.084-19.571 0-39.026 4.872-56.33 13.925v-13.397c0-5.522-4.478-10-10-10h-9.99v-53.345c0-5.522-4.478-10-10-10s-10 4.478-10 10v53.345h-84c-5.522 0-10 4.478-10 10v191c0 5.522 4.478 10 10 10h113.99c5.522 0 10-4.478 10-10v-9.992h126.267c52.042 0 104.179-12.255 150.774-35.44l78.702-39.162c10.408-5.18 18.056-14.603 20.98-25.854 2.927-11.253.837-23.207-5.731-32.8zm-190.982-220.568-32.175-23.06c-1.741-1.248-3.783-1.872-5.825-1.872s-4.084.624-5.825 1.872l-32.175 23.06v-64.184h76zm-294 353.816v-171h93.99v171zm471.357-105.482c-1.469 5.649-5.308 10.38-10.534 12.98l-78.702 39.162c-43.842 21.815-92.897 33.347-141.864 33.347h-126.267v-124.381c16.569-11.085 36.376-17.155 56.33-17.155 13.713 0 27.021 2.816 39.559 8.369l34.891 15.456c1.275.565 2.654.857 4.05.857h59.751c10.589 0 19.203 8.614 19.203 19.203s-8.614 19.204-19.203 19.204h-85.167c-5.522 0-10 4.478-10 10s4.478 10 10 10h87.652c8.587 0 16.952-1.695 24.863-5.037l108.072-45.657c8.796-3.719 19.094-.694 24.488 7.184 3.298 4.817 4.347 10.819 2.878 16.468z"/><path id="XMLID_711_" d="m103.997 185.664c2.63 0 5.21-1.07 7.069-2.931 1.87-1.87 2.931-4.439 2.931-7.069 0-2.641-1.061-5.21-2.931-7.08-1.859-1.86-4.439-2.92-7.069-2.92-2.631 0-5.21 1.06-7.07 2.92-1.86 1.87-2.93 4.439-2.93 7.08 0 2.63 1.069 5.21 2.93 7.069 1.86 1.861 4.439 2.931 7.07 2.931z"/></g></g></svg>