<svg id="Capa_1" enable-background="new 0 0 512.017 512.017" height="512" viewBox="0 0 512.017 512.017" width="512" xmlns="http://www.w3.org/2000/svg"><g id="XMLID_13_"><path id="XMLID_1640_" d="m61.002 10.009h344v304c0 22.091-17.909 40-40 40h-264c-22.091 0-40-17.909-40-40z" fill="#ffec80"/><path id="XMLID_1092_" d="m405.002 10.009-51 88h-242l-51-88z" fill="#fffbe5"/><path id="XMLID_678_" d="m233.002 244.875c-26.51 0-48-21.49-48-48v-50.866h96v50.866c0 26.51-21.491 48-48 48z" fill="#cbf4fb"/><circle id="XMLID_1143_" cx="386.017" cy="386.009" fill="#a0e4a5" r="116"/><g id="XMLID_692_"><path id="XMLID_740_" d="m291.002 196.875v-50.866c0-5.522-4.477-10-10-10h-96c-5.523 0-10 4.478-10 10v50.866c0 28.57 20.77 52.365 48 57.119v23.881h-16.875c-5.523 0-10 4.478-10 10s4.477 10 10 10h53.75c5.523 0 10-4.478 10-10s-4.477-10-10-10h-16.875v-23.881c27.23-4.754 48-28.549 48-57.119zm-96 0v-40.866h31.066l-9.894 18.59c-1.649 3.1-1.553 6.837.255 9.847 1.779 2.963 4.959 4.793 8.406 4.851l-1.903 3.813c-2.467 4.941-.46 10.947 4.481 13.413 1.434.716 2.957 1.055 4.458 1.055 3.67 0 7.205-2.028 8.955-5.536l9.123-18.278c1.547-3.1 1.38-6.779-.442-9.727-1.71-2.764-4.648-4.513-7.866-4.719l7.083-13.309h22.278v40.866c0 20.953-17.047 38-38 38s-38-17.047-38-38z"/><path id="XMLID_743_" d="m415.002 263.379v-216.172l32.348 55.816c1.854 3.2 5.21 4.987 8.661 4.987 1.702 0 3.427-.436 5.005-1.35 4.778-2.77 6.407-8.888 3.638-13.667l-51-88c-1.788-3.086-5.085-4.985-8.652-4.985h-344c-3.567 0-6.864 1.899-8.652 4.985l-51 88c-2.77 4.779-1.141 10.897 3.638 13.667 4.777 2.768 10.896 1.14 13.666-3.638l32.348-55.816v118.801c0 5.522 4.477 10 10 10s10-4.478 10-10v-118.8l32.348 55.816c1.789 3.086 5.085 4.985 8.652 4.985h242c3.567 0 6.864-1.899 8.652-4.985l32.348-55.816v213.125c-2.969-.21-5.963-.324-8.984-.324-54.756 0-101.457 35.112-118.793 84h-166.223c-16.542 0-30-13.458-30-30v-58c0-5.522-4.477-10-10-10s-10 4.478-10 10v58c0 27.57 22.43 50 50 50h160.941c-1.264 7.146-1.926 14.497-1.926 22 0 69.477 56.523 126 126 126s126-56.523 126-126c0-59.504-41.464-109.501-97.015-122.629zm-66.763-175.37h-230.475l-39.409-68h309.293zm37.778 404c-58.449 0-106-47.552-106-106s47.551-106 106-106 106 47.552 106 106-47.551 106-106 106z"/><path id="XMLID_745_" d="m402.088 341.009c-5.523 0-10 4.478-10 10s4.477 10 10 10c13.785 0 25 11.215 25 25s-11.215 25-25 25h-32.804l2.781-2.317c4.243-3.536 4.816-9.842 1.28-14.084-3.535-4.244-9.841-4.817-14.084-1.281l-24 20c-2.28 1.9-3.598 4.715-3.598 7.683s1.318 5.782 3.598 7.683l24 20c1.87 1.558 4.139 2.317 6.396 2.317 2.865 0 5.71-1.225 7.688-3.599 3.536-4.242 2.962-10.548-1.28-14.084l-2.781-2.317h32.804c24.813 0 45-20.187 45-45s-20.187-45.001-45-45.001z"/><path id="XMLID_746_" d="m60.999 221.009c2.64 0 5.21-1.07 7.07-2.931 1.86-1.859 2.93-4.439 2.93-7.069s-1.07-5.21-2.93-7.07-4.43-2.93-7.07-2.93c-2.63 0-5.21 1.069-7.07 2.93s-2.93 4.44-2.93 7.07 1.07 5.21 2.93 7.069c1.86 1.86 4.44 2.931 7.07 2.931z"/></g></g></svg>