<svg id="Capa_1" enable-background="new 0 0 511.922 511.922" height="512" viewBox="0 0 511.922 511.922" width="512" xmlns="http://www.w3.org/2000/svg"><g id="XMLID_1364_"><path id="XMLID_326_" d="m238.039 344.826-90.699 157.096-17.602-65.689-65.93 17.666 90.788-157.249z" fill="#adeefa"/><path id="XMLID_324_" d="m357.327 296.65 90.787 157.249-65.93-17.666-17.601 65.689-90.699-157.096z" fill="#adeefa"/><path id="XMLID_1369_" d="m273.79 13.544c19.926-8.155 42.845-2.014 56.023 15.011 7.691 9.935 18.977 16.451 31.426 18.144 21.334 2.901 38.111 19.678 41.012 41.012 1.693 12.449 8.209 23.736 18.144 31.426 17.025 13.179 23.166 36.097 15.011 56.023-4.759 11.628-4.759 24.66 0 36.288 8.155 19.926 2.014 42.845-15.011 56.023-9.935 7.691-16.451 18.977-18.144 31.426-2.901 21.334-19.678 38.111-41.012 41.012-12.449 1.693-23.736 8.209-31.426 18.144-13.179 17.025-36.097 23.166-56.023 15.011-11.628-4.759-24.66-4.759-36.288 0-19.926 8.155-42.845 2.014-56.023-15.011-7.691-9.935-18.977-16.451-31.426-18.144-21.334-2.901-38.111-19.678-41.012-41.012-1.693-12.449-8.209-23.736-18.144-31.426-17.025-13.179-23.166-36.097-15.011-56.023 4.759-11.628 4.759-24.66 0-36.288-8.155-19.926-2.014-42.845 15.011-56.023 9.935-7.691 16.451-18.977 18.144-31.426 2.901-21.334 19.678-38.111 41.012-41.012 12.449-1.693 23.736-8.209 31.426-18.144 13.179-17.025 36.097-23.166 56.023-15.011 11.628 4.759 24.66 4.759 36.288 0z" fill="#ffec80"/><circle id="XMLID_1366_" cx="255.961" cy="196.67" fill="#fff" r="120"/><g id="XMLID_320_"><path id="XMLID_322_" d="m244.512 252.851-58.353-58.353 31.114-31.112 27.239 27.24 50.138-50.138 31.112 31.113z" fill="#ff7d97"/></g><g id="XMLID_141_"><path id="XMLID_162_" d="m456.775 448.899-64.76-112.168c10.741-9.045 18.164-21.909 20.147-36.486 1.347-9.912 6.445-18.743 14.355-24.866 20.505-15.872 27.967-43.719 18.146-67.719-3.789-9.258-3.789-19.455 0-28.712 9.821-24 2.359-51.846-18.146-67.719-7.91-6.123-13.009-14.954-14.355-24.866-3.495-25.694-23.881-46.08-49.575-49.573-9.911-1.348-18.742-6.446-24.864-14.356-15.874-20.506-43.718-27.967-67.72-18.146-9.258 3.789-19.455 3.789-28.712 0-23.998-9.822-51.846-2.36-67.719 18.146-6.123 7.91-14.954 13.008-24.866 14.356-25.695 3.494-46.08 23.879-49.573 49.574-1.348 9.912-6.446 18.743-14.356 24.866-20.506 15.873-27.967 43.72-18.146 67.719 3.789 9.257 3.789 19.455 0 28.712-9.822 23.999-2.36 51.846 18.146 67.719 7.91 6.123 13.008 14.954 14.356 24.865 2.008 14.769 9.604 27.776 20.573 36.837l-64.558 111.817c-2.022 3.503-1.736 7.879.727 11.087 2.462 3.208 6.613 4.619 10.522 3.572l56.271-15.078 15.013 56.029c1.047 3.907 4.344 6.798 8.354 7.326.438.058.875.086 1.308.086 3.538 0 6.856-1.88 8.657-5l69.662-120.657c5.282-.569 10.542-1.862 15.628-3.944 9.258-3.789 19.456-3.789 28.712 0 5.303 2.171 10.795 3.494 16.304 4.022l69.616 120.579c1.802 3.121 5.119 5 8.657 5 .434 0 .87-.028 1.309-.086 4.01-.528 7.307-3.419 8.354-7.326l15.014-56.029 56.271 15.078c3.904 1.047 8.059-.362 10.521-3.572 2.462-3.208 2.749-7.584.727-11.087zm-306.025 27.115-11.353-42.369c-.687-2.562-2.362-4.746-4.659-6.072s-5.025-1.685-7.588-.999l-42.611 11.417 52.543-91.007c3.715 1.329 7.604 2.288 11.623 2.835 9.912 1.348 18.743 6.446 24.866 14.356 7.771 10.039 18.414 16.944 30.069 20.232zm82.964-112.203c-15.709 6.43-33.937 1.545-44.328-11.877-9.354-12.084-22.845-19.874-37.987-21.932-16.819-2.287-30.164-15.631-32.45-32.451-2.059-15.142-9.848-28.632-21.932-37.987-13.423-10.39-18.307-28.619-11.878-44.328 5.789-14.143 5.789-29.72 0-43.863-6.429-15.709-1.545-33.938 11.878-44.328 12.084-9.354 19.873-22.844 21.932-37.987 2.287-16.819 15.631-30.164 32.45-32.451 15.142-2.058 28.633-9.847 37.987-21.931 7.328-9.467 18.551-14.686 30.043-14.686 4.803 0 9.654.913 14.284 2.808 14.144 5.788 29.722 5.788 43.864 0 15.708-6.43 33.938-1.545 44.328 11.878 9.354 12.084 22.844 19.873 37.985 21.931 16.819 2.287 30.164 15.631 32.451 32.451 2.059 15.143 9.848 28.633 21.932 37.987 13.423 10.39 18.307 28.618 11.878 44.328-5.788 14.143-5.788 29.72 0 43.863 6.429 15.709 1.544 33.938-11.878 44.328-12.084 9.354-19.873 22.844-21.932 37.986-2.287 16.82-15.632 30.165-32.45 32.451-15.143 2.058-28.633 9.847-37.987 21.932-10.391 13.424-28.619 18.307-44.327 11.877-14.143-5.787-29.719-5.787-43.863.001zm151.058 62.763c-5.337-1.431-10.817 1.737-12.247 7.071l-11.354 42.369-52.98-91.765c11.443-3.348 21.879-10.19 29.531-20.074 6.122-7.911 14.953-13.009 24.864-14.356 4.207-.572 8.269-1.605 12.14-3.032l52.656 91.204z"/><path id="XMLID_1190_" d="m210.202 156.314-31.113 31.112c-1.875 1.875-2.929 4.419-2.929 7.071s1.054 5.196 2.929 7.071l58.353 58.354c1.875 1.875 4.419 2.929 7.071 2.929s5.196-1.054 7.071-2.929l81.25-81.25c3.905-3.905 3.905-10.237 0-14.142l-31.112-31.113c-1.876-1.875-4.419-2.929-7.071-2.929s-5.196 1.054-7.071 2.929l-43.066 43.067-20.168-20.169c-1.875-1.875-4.419-2.929-7.071-2.929-2.654-.001-5.198 1.053-7.073 2.928zm27.239 41.383c1.875 1.875 4.419 2.929 7.071 2.929s5.196-1.054 7.071-2.929l43.066-43.067 16.971 16.971-67.108 67.108-44.21-44.211 16.971-16.97z"/><path id="XMLID_1191_" d="m385.961 196.67c0-26.564-7.961-52.112-23.021-73.882-14.707-21.257-35.136-37.512-59.078-47.006-5.136-2.035-10.946.476-12.982 5.61s.476 10.946 5.609 12.982c42.203 16.735 69.473 56.889 69.473 102.296 0 60.654-49.346 110-110 110s-110-49.346-110-110c0-45.408 27.27-85.562 69.473-102.297 5.134-2.036 7.646-7.848 5.61-12.982s-7.849-7.646-12.982-5.61c-23.943 9.495-44.372 25.749-59.079 47.006-15.061 21.77-23.022 47.318-23.022 73.882 0 71.682 58.318 130 130 130 71.682.001 129.999-58.317 129.999-129.999z"/><path id="XMLID_1218_" d="m255.961 86.666c2.63 0 5.21-1.06 7.069-2.93 1.86-1.86 2.931-4.43 2.931-7.07 0-2.63-1.07-5.21-2.931-7.07-1.859-1.86-4.439-2.93-7.069-2.93s-5.21 1.07-7.07 2.93-2.93 4.44-2.93 7.07c0 2.64 1.07 5.21 2.93 7.07 1.86 1.87 4.44 2.93 7.07 2.93z"/></g></g></svg>