<svg id="Capa_1" enable-background="new 0 0 512 512" height="512" viewBox="0 0 512 512" width="512" xmlns="http://www.w3.org/2000/svg"><g id="XMLID_1820_"><g id="XMLID_1988_"><path id="XMLID_840_" d="m149.1 143.816h18.9v88.2h-18.9c-24.356 0-44.1-19.744-44.1-44.1 0-24.356 19.744-44.1 44.1-44.1z" fill="#ff7d97"/></g><g id="XMLID_1904_"><path id="XMLID_790_" d="m365.405 328.703c61.08 0 110.595 49.515 110.595 110.595v62.702h-440v-62.703c0-61.08 49.515-110.595 110.595-110.595h218.81z" fill="#a0e4a5"/></g><g id="XMLID_1902_"><path d="m297.134 328.703h58.533l-62.46 81.59-37.207-37.207z" fill="#fff"/></g><g id="XMLID_1898_"><path id="XMLID_5_" d="m214.866 328.703h-58.533l62.46 81.59 37.207-37.207z" fill="#fff"/></g><g id="XMLID_1897_"><path d="m297.134 281.194v50.758c-16.064 16.064-25.07 25.07-41.134 41.134-16.064-16.064-25.07-25.07-41.134-41.134v-50.758z" fill="#efb789"/></g><g id="XMLID_1504_"><g id="XMLID_1505_"><g id="XMLID_2237_"><path id="XMLID_8_" d="m256 54c48.601 0 88 39.399 88 88v70.53c0 48.524-39.399 87.861-88 87.861-48.601 0-88-39.337-88-87.861v-70.53c0-48.601 39.399-88 88-88z" fill="#f3c9a6"/></g></g><g id="XMLID_2236_"><path id="XMLID_7_" d="m275.231 127.199c8.536 14.794 24.318 23.909 41.399 23.909h24.009v-13.081c0-46.407-37.62-84.028-84.028-84.028-46.407 0-84.028 37.62-84.028 84.028v13.081h34.59c23.647 0 46.322-9.409 63.022-26.151l13.332-13.365" fill="#6d92ac"/></g></g><g id="XMLID_2225_"><path id="XMLID_402_" d="m283.323 238.316c0-11.046-8.954-20-20-20h-8c-11.046 0-20 8.954-20 20 0 11.046 8.954 20 20 20h8c11.046 0 20-8.955 20-20z" fill="#ff7d97"/></g><g id="XMLID_2022_"><path id="XMLID_391_" d="m362.9 143.816h-18.9v88.2h18.9c24.356 0 44.1-19.744 44.1-44.1 0-24.356-19.744-44.1-44.1-44.1z" fill="#ff7d97"/></g><g id="XMLID_426_"><path id="XMLID_789_" d="m365.405 318.703h-58.271v-22.723c19.908-12.208 35.134-31.316 42.317-53.965h13.449c29.831 0 54.1-24.269 54.1-54.1 0-16.444-7.384-31.188-19-41.119v-4.796c0-78.299-63.701-142-142-142s-142 63.701-142 142v4.797c-11.616 9.931-19 24.674-19 41.119 0 29.831 24.269 54.1 54.1 54.1h13.449c7.182 22.648 22.409 41.756 42.317 53.965v22.723h-58.271c-66.496-.001-120.595 54.098-120.595 120.594v62.702c0 5.522 4.477 10 10 10h66.186c5.523 0 10-4.478 10-10s-4.477-10-10-10h-56.186v-52.702c0-55.468 45.126-100.595 100.595-100.595h4.8l59.458 77.669c1.751 2.288 4.405 3.709 7.281 3.899.221.015.44.021.66.021 2.643 0 5.189-1.048 7.071-2.929l20.135-20.134v94.771h-53.814c-5.523 0-10 4.478-10 10s4.477 10 10 10h283.814c5.523 0 10-4.478 10-10v-62.702c0-66.496-54.099-120.595-120.595-120.595zm-60.88 20h30.892l-43.211 56.446-22.064-22.063zm-13.937-234.191c-3.91-3.901-10.242-3.894-14.142.018l-13.332 13.365c-14.932 14.97-34.798 23.214-55.941 23.214h-29.151c.482-42.599 35.268-77.109 77.978-77.109s77.496 34.51 77.977 77.108h-17.347c-12.691 0-24.56-6.441-31.517-16.947l5.493-5.507c3.901-3.91 3.893-10.242-.018-14.142zm72.312 117.504h-8.9v-68.2h8.9c18.803 0 34.1 15.298 34.1 34.101s-15.297 34.099-34.1 34.099zm-106.9-202.016c65.237 0 118.676 51.469 121.849 115.933-4.751-1.369-9.763-2.117-14.949-2.117h-9.245c-4.172-50.222-46.374-89.816-97.655-89.816s-93.483 39.594-97.655 89.815h-9.245c-5.186 0-10.197.749-14.949 2.117 3.173-64.463 56.612-115.932 121.849-115.932zm-98 202.016h-8.9c-18.803 0-34.1-15.297-34.1-34.1s15.297-34.101 34.1-34.101h8.9zm20-9.486v-51.422h29.173c23.433 0 45.613-8.087 63.372-22.933 10.833 14.294 27.909 22.933 46.085 22.933h17.37v51.422c0 5.407-.558 10.686-1.614 15.785h-40.784c-4.128-11.639-15.243-20-28.28-20h-8c-16.542 0-30 13.458-30 30s13.458 30 30 30h8c13.036 0 24.152-8.361 28.28-20h33.636c-13.005 24.97-39.15 42.075-69.239 42.075-43.008.001-77.999-34.927-77.999-77.86zm95.323 25.785c0 5.514-4.486 10-10 10h-8c-5.514 0-10-4.486-10-10s4.486-10 10-10h8c5.514 0 10 4.487 10 10zm-17.323 72.076c10.879 0 21.348-1.782 31.134-5.064v22.483l-31.134 31.134-31.134-31.135v-22.483c9.786 3.282 20.255 5.065 31.134 5.065zm-36.206 84.758-43.211-56.446h30.892l34.383 34.383zm246.206 96.851h-200v-94.771l20.136 20.136c1.882 1.881 4.428 2.929 7.071 2.929.219 0 .44-.007.66-.021 2.875-.19 5.529-1.611 7.281-3.899l59.458-77.669h4.8c55.468-.002 100.594 45.125 100.594 100.593z"/><path id="XMLID_841_" d="m395.666 438h-47.999c-5.523 0-10 4.478-10 10s4.477 10 10 10h47.999c5.523 0 10-4.478 10-10s-4.477-10-10-10z"/><path id="XMLID_842_" d="m147.19 492c-2.64 0-5.21 1.069-7.07 2.93-1.87 1.86-2.93 4.44-2.93 7.07s1.06 5.21 2.93 7.069c1.85 1.86 4.43 2.931 7.07 2.931 2.63 0 5.2-1.07 7.07-2.931 1.86-1.859 2.93-4.439 2.93-7.069s-1.07-5.21-2.93-7.07c-1.87-1.861-4.44-2.93-7.07-2.93z"/></g></g></svg>